<svg version="1.0" preserveAspectRatio="xMidYMid meet" height="80" viewBox="0 0 150 60" zoomAndPan="magnify" width="200" xmlns:xlink="http://www.w3.org/1999/xlink" xmlns="http://www.w3.org/2000/svg"><path fill-rule="nonzero" fill-opacity="1" d="M 19.050781 33.300781 L 17.023438 23.550781 L 14.851562 33.300781 L 11.25 33.300781 L 7.5 19.648438 L 10.949219 19.648438 L 13.125 29.101562 L 15.074219 19.648438 L 18.75 19.648438 L 20.625 29.101562 L 22.5 20.925781 C 22.800781 20.101562 23.324219 19.648438 24.148438 19.648438 L 26.398438 19.648438 L 22.648438 33.300781 Z M 19.050781 33.300781" fill="#32b4ac"></path><path fill-rule="nonzero" fill-opacity="1" d="M 39.75 29.101562 C 39.375 30.601562 38.699219 31.800781 37.726562 32.476562 C 36.601562 33.226562 35.324219 33.601562 33.824219 33.601562 C 29.699219 33.449219 27.601562 31.050781 27.601562 26.476562 C 27.601562 21.898438 29.699219 19.5 33.824219 19.5 C 38.175781 19.5 40.199219 22.199219 39.898438 27.523438 L 31.199219 27.523438 C 31.351562 29.625 32.25 30.675781 33.898438 30.675781 C 34.726562 30.675781 35.398438 30.375 36.148438 29.699219 C 36.449219 29.324219 36.824219 29.175781 37.273438 29.175781 Z M 36.375 24.976562 C 36.148438 23.175781 35.324219 22.273438 33.824219 22.273438 C 32.324219 22.273438 31.5 23.175781 31.199219 24.976562 C 31.199219 24.976562 36.375 24.976562 36.375 24.976562 Z M 36.375 24.976562" fill="#32b4ac"></path><path fill-rule="nonzero" fill-opacity="1" d="M 43.574219 15.75 C 44.023438 15.75 44.398438 15.898438 44.699219 16.199219 C 45.074219 16.5 45.226562 16.875 45.226562 17.398438 L 45.226562 33.226562 L 41.773438 33.226562 L 41.773438 15.75 Z M 43.574219 15.75" fill="#32b4ac"></path><path fill-rule="nonzero" fill-opacity="1" d="M 49.726562 15.75 C 50.175781 15.75 50.550781 15.898438 50.851562 16.199219 C 51.226562 16.5 51.375 16.875 51.375 17.398438 L 51.375 33.226562 L 47.925781 33.226562 L 47.925781 15.75 Z M 49.726562 15.75" fill="#32b4ac"></path><path fill-rule="nonzero" fill-opacity="1" d="M 58.125 33.300781 L 53.324219 19.648438 L 57.074219 19.648438 L 59.851562 29.25 L 62.25 20.851562 C 62.550781 20.023438 63.074219 19.648438 63.898438 19.648438 L 66.601562 19.648438 L 61.800781 33.300781 Z M 58.125 33.300781" fill="#32b4ac"></path><path fill-rule="nonzero" fill-opacity="1" d="M 79.648438 29.101562 C 79.273438 30.601562 78.601562 31.800781 77.625 32.476562 C 76.5 33.226562 75.226562 33.601562 73.726562 33.601562 C 69.601562 33.449219 67.5 31.050781 67.5 26.476562 C 67.5 21.898438 69.601562 19.5 73.726562 19.5 C 78.074219 19.5 80.101562 22.199219 79.800781 27.523438 L 71.023438 27.523438 C 71.175781 29.625 72.074219 30.675781 73.726562 30.675781 C 74.550781 30.675781 75.226562 30.375 75.976562 29.699219 C 76.273438 29.324219 76.648438 29.175781 77.101562 29.175781 Z M 76.273438 24.976562 C 76.050781 23.175781 75.226562 22.273438 73.726562 22.273438 C 72.226562 22.273438 71.398438 23.175781 71.101562 24.976562 C 71.101562 24.976562 76.273438 24.976562 76.273438 24.976562 Z M 76.273438 24.976562" fill="#32b4ac"></path><path fill-rule="nonzero" fill-opacity="1" d="M 81.75 26.25 C 81.824219 21.824219 84.226562 19.648438 88.726562 19.648438 L 89.25 19.648438 L 89.25 23.25 L 88.050781 23.25 C 86.101562 23.25 85.199219 24.226562 85.199219 26.25 L 85.199219 33.375 L 81.75 33.375 Z M 81.75 26.25" fill="#32b4ac"></path><path fill-rule="nonzero" fill-opacity="1" d="M 94.199219 28.800781 C 94.273438 29.476562 94.5 30 94.949219 30.300781 C 95.398438 30.675781 96.074219 30.824219 96.976562 30.824219 C 98.398438 30.824219 99.148438 30.375 99.148438 29.476562 C 99.148438 28.800781 97.949219 28.199219 95.625 27.824219 C 92.625 27.300781 91.050781 25.949219 91.050781 23.773438 C 91.050781 22.425781 91.5 21.375 92.476562 20.550781 C 93.449219 19.800781 94.726562 19.425781 96.449219 19.425781 C 98.175781 19.425781 99.601562 19.800781 100.648438 20.550781 C 101.625 21.375 102.148438 22.5 102.300781 23.851562 L 100.125 23.851562 C 99.300781 23.773438 98.773438 23.550781 98.625 23.023438 C 98.398438 22.425781 97.726562 22.125 96.601562 22.125 C 95.25 22.125 94.574219 22.5 94.574219 23.175781 C 94.574219 23.851562 95.476562 24.375 97.273438 24.75 C 99.601562 25.199219 101.101562 25.800781 101.851562 26.476562 C 102.523438 27.148438 102.824219 27.976562 102.824219 28.875 C 102.824219 30.375 102.300781 31.5 101.175781 32.324219 C 100.125 33.074219 98.625 33.449219 96.523438 33.449219 C 94.574219 33.449219 93.226562 33.074219 92.25 32.25 C 91.199219 31.5 90.675781 30.300781 90.675781 28.726562 Z M 94.199219 28.800781" fill="#32b4ac"></path><path fill-rule="nonzero" fill-opacity="1" d="M 116.550781 29.101562 C 116.175781 30.601562 115.5 31.800781 114.523438 32.476562 C 113.398438 33.226562 112.125 33.601562 110.625 33.601562 C 106.5 33.449219 104.398438 31.050781 104.398438 26.476562 C 104.398438 21.898438 106.5 19.5 110.625 19.5 C 114.976562 19.5 117 22.199219 116.699219 27.523438 L 107.925781 27.523438 C 108.074219 29.625 108.976562 30.675781 110.625 30.675781 C 111.449219 30.675781 112.125 30.375 112.875 29.699219 C 113.175781 29.324219 113.550781 29.175781 114 29.175781 Z M 113.175781 24.976562 C 112.949219 23.175781 112.125 22.273438 110.625 22.273438 C 109.125 22.273438 108.300781 23.175781 108 24.976562 C 108 24.976562 113.175781 24.976562 113.175781 24.976562 Z M 113.175781 24.976562" fill="#32b4ac"></path><path fill-rule="nonzero" fill-opacity="1" d="M 129.523438 15.75 C 129.976562 15.75 130.425781 15.898438 130.726562 16.273438 C 131.101562 16.648438 131.25 17.023438 131.25 17.476562 L 131.25 27.375 C 131.25 31.5 129.074219 33.523438 124.875 33.449219 C 120.675781 33.375 118.5 31.050781 118.5 26.550781 C 118.5 21.898438 120.300781 19.574219 123.898438 19.425781 C 125.625 19.425781 126.898438 20.101562 127.800781 21.523438 L 127.800781 15.75 Z M 124.875 22.5 C 123 22.5 122.023438 23.851562 121.949219 26.398438 C 121.875 29.175781 122.851562 30.523438 124.800781 30.523438 C 126.75 30.523438 127.726562 29.175781 127.726562 26.398438 C 127.726562 23.773438 126.75 22.5 124.875 22.5 Z M 124.875 22.5" fill="#32b4ac"></path><path fill-rule="nonzero" fill-opacity="1" d="M 136.875 16.574219 L 135.375 16.574219 L 135.375 20.398438 L 134.476562 20.398438 L 134.476562 16.574219 L 133.050781 16.574219 L 133.050781 15.824219 L 136.875 15.824219 Z M 136.875 16.574219" fill="#32b4ac"></path><path fill-rule="nonzero" fill-opacity="1" d="M 141.601562 20.398438 L 141.601562 17.398438 L 140.398438 19.648438 L 139.949219 19.648438 L 138.75 17.398438 L 138.75 20.398438 L 137.851562 20.398438 L 137.851562 15.824219 L 138.824219 15.824219 L 140.175781 18.449219 L 141.523438 15.824219 L 142.5 15.824219 L 142.5 20.398438 Z M 141.601562 20.398438" fill="#32b4ac"></path><path fill-rule="nonzero" fill-opacity="1" d="M 15.601562 44.175781 L 15.601562 40.351562 L 13.949219 43.273438 L 13.574219 43.273438 L 11.925781 40.351562 L 11.925781 44.175781 L 11.25 44.175781 L 11.25 39.226562 L 11.925781 39.226562 L 13.800781 42.449219 L 15.675781 39.226562 L 16.351562 39.226562 L 16.351562 44.175781 Z M 15.601562 44.175781" fill="#32b4ac"></path><path fill-rule="nonzero" fill-opacity="1" d="M 19.351562 39.226562 L 19.875 39.226562 L 21.898438 44.175781 L 21.226562 44.175781 L 20.625 42.75 L 18.449219 42.75 L 17.851562 44.175781 L 17.25 44.175781 Z M 20.550781 42.300781 L 19.648438 39.976562 L 18.75 42.300781 Z M 20.550781 42.300781" fill="#32b4ac"></path><path fill-rule="nonzero" fill-opacity="1" d="M 23.101562 39.226562 L 24.601562 41.25 L 26.101562 39.226562 L 26.851562 39.226562 L 24.976562 41.773438 L 26.851562 44.25 L 26.101562 44.25 L 24.601562 42.300781 L 23.101562 44.25 L 22.351562 44.25 L 24.226562 41.773438 L 22.351562 39.226562 Z M 23.101562 39.226562" fill="#32b4ac"></path><path fill-rule="nonzero" fill-opacity="1" d="M 27.824219 39.226562 L 28.5 39.226562 L 28.5 44.175781 L 27.824219 44.175781 Z M 27.824219 39.226562" fill="#32b4ac"></path><path fill-rule="nonzero" fill-opacity="1" d="M 34.425781 44.175781 L 34.425781 40.351562 L 32.773438 43.273438 L 32.398438 43.273438 L 30.75 40.351562 L 30.75 44.175781 L 30 44.175781 L 30 39.226562 L 30.75 39.226562 L 32.625 42.449219 L 34.5 39.226562 L 35.175781 39.226562 L 35.175781 44.175781 Z M 34.425781 44.175781" fill="#32b4ac"></path><path fill-rule="nonzero" fill-opacity="1" d="M 36.601562 39.226562 L 37.273438 39.226562 L 37.273438 44.175781 L 36.601562 44.175781 Z M 36.601562 39.226562" fill="#32b4ac"></path><path fill-rule="nonzero" fill-opacity="1" d="M 43.574219 39.226562 L 44.25 39.226562 L 44.25 44.175781 L 43.574219 44.175781 Z M 43.574219 39.226562" fill="#32b4ac"></path><path fill-rule="nonzero" fill-opacity="1" d="M 46.425781 40.425781 L 46.425781 44.25 L 45.75 44.25 L 45.75 39.300781 L 46.273438 39.300781 L 49.351562 43.199219 L 49.351562 39.300781 L 50.023438 39.300781 L 50.023438 44.25 L 49.5 44.25 Z M 46.425781 40.425781" fill="#32b4ac"></path><path fill-rule="nonzero" fill-opacity="1" d="M 53.699219 44.25 C 53.398438 44.25 53.023438 44.175781 52.800781 44.023438 C 52.5 43.875 52.273438 43.726562 52.050781 43.425781 C 51.824219 43.199219 51.675781 42.898438 51.523438 42.601562 C 51.375 42.300781 51.375 42 51.375 41.699219 C 51.375 41.324219 51.449219 41.023438 51.523438 40.726562 C 51.675781 40.425781 51.824219 40.125 52.050781 39.898438 C 52.273438 39.675781 52.5 39.449219 52.800781 39.375 C 53.101562 39.226562 53.398438 39.148438 53.699219 39.148438 C 54.148438 39.148438 54.601562 39.226562 54.898438 39.449219 C 55.199219 39.675781 55.5 39.898438 55.648438 40.273438 L 55.199219 40.648438 C 55.050781 40.351562 54.824219 40.125 54.601562 39.976562 C 54.300781 39.824219 54.074219 39.75 53.773438 39.75 C 53.476562 39.75 53.324219 39.824219 53.101562 39.898438 C 52.875 39.976562 52.726562 40.199219 52.574219 40.351562 C 52.425781 40.5 52.273438 40.726562 52.199219 40.949219 C 52.125 41.175781 52.050781 41.398438 52.050781 41.699219 C 52.050781 42 52.125 42.226562 52.199219 42.449219 C 52.273438 42.675781 52.425781 42.898438 52.574219 43.050781 C 52.726562 43.199219 52.949219 43.351562 53.175781 43.5 C 53.398438 43.574219 53.625 43.648438 53.851562 43.648438 C 54.148438 43.648438 54.449219 43.574219 54.675781 43.425781 C 54.976562 43.273438 55.199219 43.050781 55.425781 42.75 L 55.425781 43.425781 C 54.824219 43.949219 54.300781 44.25 53.699219 44.25 Z M 55.199219 42.226562 L 54.074219 42.226562 L 54.074219 41.773438 L 55.726562 41.773438 L 55.726562 44.25 L 55.199219 44.25 Z M 55.199219 42.226562" fill="#32b4ac"></path><path fill-rule="nonzero" fill-opacity="1" d="M 63.300781 39.226562 L 63.300781 44.175781 L 62.625 44.175781 L 62.625 41.925781 L 59.851562 41.925781 L 59.851562 44.175781 L 59.175781 44.175781 L 59.175781 39.226562 L 59.851562 39.226562 L 59.851562 41.398438 L 62.625 41.398438 L 62.625 39.226562 Z M 63.300781 39.226562" fill="#32b4ac"></path><path fill-rule="nonzero" fill-opacity="1" d="M 66.898438 44.25 C 66.523438 44.25 66.148438 44.175781 65.851562 44.023438 C 65.550781 43.875 65.324219 43.726562 65.175781 43.425781 C 65.023438 43.125 64.875 42.898438 64.800781 42.601562 C 64.726562 42.300781 64.648438 42 64.648438 41.699219 L 64.648438 39.226562 L 65.324219 39.226562 L 65.324219 41.699219 C 65.324219 41.925781 65.324219 42.148438 65.398438 42.375 C 65.476562 42.601562 65.550781 42.824219 65.625 42.976562 C 65.699219 43.125 65.925781 43.273438 66.074219 43.425781 C 66.226562 43.574219 66.523438 43.574219 66.824219 43.574219 C 67.125 43.574219 67.351562 43.5 67.574219 43.425781 C 67.800781 43.351562 67.949219 43.125 68.023438 42.976562 C 68.175781 42.824219 68.25 42.601562 68.25 42.375 C 68.324219 42.148438 68.324219 41.925781 68.324219 41.699219 L 68.324219 39.226562 L 69 39.226562 L 69 41.773438 C 69 42.148438 68.925781 42.449219 68.851562 42.75 C 68.773438 43.050781 68.625 43.351562 68.476562 43.574219 C 68.324219 43.800781 68.101562 43.949219 67.800781 44.101562 C 67.648438 44.175781 67.273438 44.25 66.898438 44.25 Z M 66.898438 44.25" fill="#32b4ac"></path><path fill-rule="nonzero" fill-opacity="1" d="M 74.925781 44.175781 L 74.925781 40.351562 L 73.273438 43.273438 L 72.898438 43.273438 L 71.25 40.351562 L 71.25 44.175781 L 70.5 44.175781 L 70.5 39.226562 L 71.175781 39.226562 L 73.050781 42.449219 L 74.925781 39.226562 L 75.601562 39.226562 L 75.601562 44.175781 Z M 74.925781 44.175781" fill="#32b4ac"></path><path fill-rule="nonzero" fill-opacity="1" d="M 78.675781 39.226562 L 79.199219 39.226562 L 81.226562 44.175781 L 80.550781 44.175781 L 79.949219 42.75 L 77.773438 42.75 L 77.175781 44.175781 L 76.5 44.175781 Z M 79.800781 42.300781 L 78.898438 39.976562 L 78 42.300781 Z M 79.800781 42.300781" fill="#32b4ac"></path><path fill-rule="nonzero" fill-opacity="1" d="M 82.875 40.425781 L 82.875 44.25 L 82.199219 44.25 L 82.199219 39.300781 L 82.726562 39.300781 L 85.800781 43.199219 L 85.800781 39.300781 L 86.476562 39.300781 L 86.476562 44.25 L 85.875 44.25 Z M 82.875 40.425781" fill="#32b4ac"></path><path fill-rule="nonzero" fill-opacity="1" d="M 90.226562 44.175781 L 90.226562 39.226562 L 92.324219 39.226562 C 92.550781 39.226562 92.773438 39.300781 92.925781 39.375 C 93.074219 39.449219 93.300781 39.601562 93.375 39.75 C 93.523438 39.898438 93.601562 40.050781 93.675781 40.273438 C 93.75 40.425781 93.824219 40.648438 93.824219 40.875 C 93.824219 41.175781 93.75 41.398438 93.675781 41.625 C 93.523438 41.851562 93.375 42.074219 93.148438 42.226562 C 92.925781 42.375 92.699219 42.449219 92.324219 42.449219 L 90.824219 42.449219 L 90.824219 44.25 Z M 90.898438 41.851562 L 92.398438 41.851562 C 92.550781 41.851562 92.699219 41.773438 92.851562 41.699219 C 93 41.625 93.074219 41.476562 93.148438 41.324219 C 93.226562 41.175781 93.226562 41.023438 93.226562 40.800781 C 93.226562 40.574219 93.148438 40.425781 93.074219 40.273438 C 93 40.125 92.851562 39.976562 92.699219 39.898438 C 92.550781 39.824219 92.398438 39.75 92.25 39.75 L 90.824219 39.75 Z M 90.898438 41.851562" fill="#32b4ac"></path><path fill-rule="nonzero" fill-opacity="1" d="M 97.050781 44.25 C 96.675781 44.25 96.375 44.175781 96.074219 44.023438 C 95.773438 43.875 95.550781 43.726562 95.324219 43.425781 C 95.101562 43.125 94.949219 42.898438 94.875 42.601562 C 94.800781 42.300781 94.726562 42 94.726562 41.699219 C 94.726562 41.398438 94.800781 41.023438 94.875 40.726562 C 95.023438 40.425781 95.175781 40.125 95.398438 39.898438 C 95.625 39.675781 95.851562 39.449219 96.148438 39.300781 C 96.449219 39.148438 96.75 39.074219 97.125 39.074219 C 97.5 39.074219 97.800781 39.148438 98.101562 39.300781 C 98.398438 39.449219 98.625 39.675781 98.851562 39.898438 C 99.074219 40.125 99.226562 40.425781 99.300781 40.726562 C 99.449219 41.023438 99.449219 41.324219 99.449219 41.625 C 99.449219 41.925781 99.375 42.300781 99.300781 42.601562 C 99.226562 42.898438 99 43.199219 98.773438 43.425781 C 98.550781 43.648438 98.324219 43.875 98.023438 44.023438 C 97.726562 44.175781 97.425781 44.25 97.050781 44.25 Z M 95.324219 41.699219 C 95.324219 41.925781 95.398438 42.226562 95.476562 42.449219 C 95.550781 42.675781 95.699219 42.898438 95.851562 43.050781 C 96 43.199219 96.226562 43.351562 96.375 43.5 C 96.601562 43.574219 96.824219 43.648438 97.050781 43.648438 C 97.351562 43.648438 97.574219 43.574219 97.800781 43.5 C 98.023438 43.425781 98.175781 43.199219 98.324219 43.050781 C 98.476562 42.898438 98.625 42.675781 98.699219 42.449219 C 98.773438 42.226562 98.851562 42 98.851562 41.773438 C 98.851562 41.550781 98.773438 41.324219 98.699219 41.023438 C 98.625 40.800781 98.476562 40.574219 98.324219 40.425781 C 98.175781 40.273438 97.949219 40.125 97.800781 39.976562 C 97.648438 39.824219 97.351562 39.824219 97.125 39.824219 C 96.898438 39.824219 96.601562 39.898438 96.375 39.976562 C 96.148438 40.050781 96 40.273438 95.851562 40.425781 C 95.699219 40.574219 95.550781 40.800781 95.476562 41.023438 C 95.324219 41.25 95.324219 41.476562 95.324219 41.699219 Z M 95.324219 41.699219" fill="#32b4ac"></path><path fill-rule="nonzero" fill-opacity="1" d="M 104.175781 39.824219 L 102.449219 39.824219 L 102.449219 44.25 L 101.773438 44.25 L 101.773438 39.824219 L 100.050781 39.824219 L 100.050781 39.226562 L 104.175781 39.226562 Z M 104.175781 39.824219" fill="#32b4ac"></path><path fill-rule="nonzero" fill-opacity="1" d="M 108.675781 43.648438 L 108.675781 44.25 L 105.226562 44.25 L 105.226562 39.300781 L 108.601562 39.300781 L 108.601562 39.898438 L 105.898438 39.898438 L 105.898438 41.550781 L 108.300781 41.550781 L 108.300781 42.074219 L 105.898438 42.074219 L 105.898438 43.800781 Z M 108.675781 43.648438" fill="#32b4ac"></path><path fill-rule="nonzero" fill-opacity="1" d="M 110.476562 40.425781 L 110.476562 44.25 L 109.800781 44.25 L 109.800781 39.300781 L 110.324219 39.300781 L 113.398438 43.199219 L 113.398438 39.300781 L 114.074219 39.300781 L 114.074219 44.25 L 113.476562 44.25 Z M 110.476562 40.425781" fill="#32b4ac"></path><path fill-rule="nonzero" fill-opacity="1" d="M 119.324219 39.824219 L 117.601562 39.824219 L 117.601562 44.25 L 116.925781 44.25 L 116.925781 39.824219 L 115.199219 39.824219 L 115.199219 39.226562 L 119.324219 39.226562 Z M 119.324219 39.824219" fill="#32b4ac"></path><path fill-rule="nonzero" fill-opacity="1" d="M 120.375 39.226562 L 121.050781 39.226562 L 121.050781 44.175781 L 120.375 44.175781 Z M 120.375 39.226562" fill="#32b4ac"></path><path fill-rule="nonzero" fill-opacity="1" d="M 124.125 39.226562 L 124.648438 39.226562 L 126.675781 44.175781 L 126 44.175781 L 125.398438 42.75 L 123.226562 42.75 L 122.625 44.175781 L 121.949219 44.175781 Z M 125.324219 42.300781 L 124.425781 39.976562 L 123.523438 42.300781 Z M 125.324219 42.300781" fill="#32b4ac"></path><path fill-rule="nonzero" fill-opacity="1" d="M 127.800781 44.175781 L 127.800781 39.226562 L 128.476562 39.226562 L 128.476562 43.648438 L 131.324219 43.648438 L 131.324219 44.25 L 127.800781 44.25 Z M 127.800781 44.175781" fill="#32b4ac"></path><path fill-rule="nonzero" fill-opacity="1" d="M 40.425781 44.25 C 40.050781 44.25 39.675781 44.175781 39.375 44.101562 C 39 43.949219 38.773438 43.800781 38.550781 43.648438 L 38.851562 43.125 C 39 43.273438 39.300781 43.425781 39.523438 43.5 C 39.824219 43.574219 40.125 43.648438 40.425781 43.648438 C 40.726562 43.648438 40.949219 43.574219 41.101562 43.574219 C 41.25 43.5 41.398438 43.425781 41.476562 43.273438 C 41.550781 43.125 41.625 43.050781 41.625 42.898438 C 41.625 42.75 41.550781 42.601562 41.476562 42.523438 C 41.398438 42.449219 41.25 42.375 41.023438 42.300781 C 40.875 42.226562 40.648438 42.148438 40.425781 42.148438 C 40.199219 42.074219 39.976562 42.074219 39.824219 42 C 39.675781 41.925781 39.449219 41.851562 39.226562 41.773438 C 39 41.699219 38.925781 41.550781 38.773438 41.398438 C 38.699219 41.25 38.625 41.023438 38.625 40.726562 C 38.625 40.5 38.699219 40.273438 38.851562 40.050781 C 39 39.824219 39.226562 39.675781 39.449219 39.523438 C 39.75 39.375 40.050781 39.300781 40.5 39.300781 C 40.800781 39.300781 41.101562 39.375 41.324219 39.449219 C 41.625 39.523438 41.851562 39.601562 42.074219 39.75 L 41.851562 40.351562 C 41.625 40.199219 41.398438 40.125 41.175781 40.050781 C 40.949219 39.976562 40.726562 39.976562 40.5 39.976562 C 40.199219 39.976562 39.976562 40.050781 39.824219 40.050781 C 39.675781 40.125 39.523438 40.199219 39.449219 40.351562 C 39.375 40.5 39.300781 40.574219 39.300781 40.726562 C 39.300781 40.875 39.375 41.023438 39.449219 41.101562 C 39.601562 41.175781 39.75 41.25 39.898438 41.324219 C 40.050781 41.398438 40.273438 41.476562 40.5 41.476562 C 40.726562 41.550781 40.949219 41.550781 41.101562 41.625 C 41.324219 41.699219 41.476562 41.773438 41.699219 41.851562 C 41.851562 41.925781 42 42.074219 42.148438 42.226562 C 42.226562 42.375 42.300781 42.601562 42.300781 42.824219 C 42.300781 43.050781 42.226562 43.273438 42.074219 43.5 C 41.925781 43.726562 41.699219 43.875 41.476562 44.023438 C 41.25 44.175781 40.875 44.25 40.425781 44.25 Z M 40.425781 44.25" fill="#32b4ac"></path></svg>